<?xml version="1.0"?>
<svg xmlns="http://www.w3.org/2000/svg" height="512px" viewBox="-51 0 415 415.24568" width="512px" class=""><g><path d="m252.710938 152.417969c0 69.75-56.542969 126.292969-126.292969 126.292969s-126.296875-56.542969-126.296875-126.292969 56.546875-126.292969 126.296875-126.292969 126.292969 56.542969 126.292969 126.292969zm0 0" fill="#e7d1c4" data-original="#E7D1C4" class="active-path" style="fill:#0083C9" data-old_color="#e7d1c4"/><path d="m300.199219 255.394531c-1.4375-4.632812-3.152344-9.1875-5.128907-13.636719l-8.042968-18.105468c-6.871094-15.460938-10.421875-32.191406-10.421875-49.109375v-42.605469l13.585937-4.53125c3.96875-1.320312 6.386719-5.335938 5.695313-9.460938l-.359375-2.171874c-2.945313-17.671876-19.308594-29.867188-37.078125-27.644532l-1.832031.226563c-12.96875 1.621093-25.8125-3.832031-33.65625-14.289063l-6.507813-8.671875c2.773437-9.671875 2.992187-19.917969.265625-29.671875l-1.78125-6.351562c-4.585938-16.402344-21.605469-25.980469-38.011719-21.390625-16.402343 4.585937-25.980469 21.605469-21.394531 38.011719l1.777344 6.351562c3.203125 11.445312 6.980468 25.820312 19.519531 28.722656 28.09375 6.5 11.027344 16.738282 11.027344 16.738282l-17.070313 14.226562c-14.722656 12.269531-21.550781 31.609375-17.792968 50.402344l12.082031 31.730468c1.230469 3.234376 4.988281 4.699219 8.085937 3.148438l21.519532-10.761719 3.503906 10.507813c2.023437 6.070312 1.355468 12.679687-1.683594 18.3125-15.453125 28.601562-16.660156 61.332031-16.136719 77.351562zm0 0" fill="#fff" data-original="#FFF" class=""/><path d="m180.363281 299.550781c-1.398437 0-2.785156-.433593-3.953125-1.257812-1.738281-1.242188-2.800781-3.214844-2.867187-5.347657-.566407-17.414062.882812-51.074218 16.957031-80.824218 2.164062-4.007813 2.605469-8.714844 1.210938-12.902344l-1.011719-3.039062-14.480469 7.238281c-3.199219 1.59375-6.953125 1.769531-10.28125.472656-3.324219-1.300781-5.964844-3.957031-7.238281-7.292969l-12.078125-31.738281c-.132813-.355469-.242188-.714844-.316406-1.085937-4.253907-21.269532 3.453124-43.109376 20.121093-56.988282l17.058594-14.226562c.273437-.222656.5625-.425782.859375-.605469.308594-.195313.664062-.46875.980469-.75-1.386719-.832031-4.285157-2.160156-10.03125-3.484375-16.226563-3.753906-20.929688-20.554688-24.355469-32.828125l-1.972656-7.066406c-2.714844-9.6875-1.488282-19.855469 3.449218-28.621094 4.933594-8.773437 12.992188-15.09375 22.679688-17.800781 20.011719-5.613282 40.824219 6.128906 46.425781 26.128906l1.773438 6.359375c2.707031 9.652344 2.898437 19.964844.59375 30.027344l4.539062 6.058593c6.359375 8.476563 16.839844 12.941407 27.34375 11.609376l1.820313-.234376c21.539062-2.679687 41.113281 11.945313 44.667968 33.300782l.367188 2.160156c1.246094 7.496094-3.074219 14.675781-10.273438 17.074219l-8.921874 2.972656v37.6875c0 16.074219 3.308593 31.660156 9.832031 46.332031l8.046875 18.105469c2.074218 4.667969 3.894531 9.507813 5.410156 14.386719 1.109375 3.601562-.894531 7.421875-4.488281 8.539062l-119.832031 37.335938c-.667969.207031-1.355469.304687-2.035157.304687zm14.320313-119.824219c.886718 0 1.773437.171876 2.613281.519532 1.824219.757812 3.238281 2.273437 3.867187 4.148437l3.5 10.503907c2.578126 7.753906 1.800782 16.394531-2.15625 23.714843-12.152343 22.496094-15.058593 47.789063-15.378906 64.855469l104.339844-32.507812c-.816406-2.167969-1.699219-4.3125-2.632812-6.421876l-8.054688-18.113281c-7.296875-16.433593-11.003906-33.882812-11.003906-51.878906v-42.605469c0-2.941406 1.878906-5.546875 4.664062-6.480468l13.585938-4.519532c.789062-.265625 1.261718-1.054687 1.128906-1.875l-.367188-2.160156c-2.347656-14.113281-15.300781-23.78125-29.492187-22.007812l-1.820313.234374c-15.347656 1.894532-30.691406-4.582031-39.972656-16.964843l-6.507812-8.679688c-1.285156-1.707031-1.691406-3.921875-1.101563-5.976562 2.488281-8.671875 2.574219-17.644531.25-25.945313l-1.773437-6.359375c-3.574219-12.753906-16.886719-20.199219-29.601563-16.652343-6.179687 1.726562-11.3125 5.757812-14.460937 11.34375-3.144532 5.59375-3.925782 12.074218-2.199219 18.253906l1.972656 7.066406c3.375 12.046875 6.5625 21.40625 14.285157 23.195312 8.460937 1.957032 19.875 5.613282 21.316406 14.726563.972656 6.183594-3.496094 11.4375-7.820313 14.210937l-16.703125 13.925782c-12.671875 10.554687-18.609375 27.09375-15.578125 43.273437l11.484375 30.175781 20.5625-10.28125c.960938-.480468 2.007813-.71875 3.054688-.71875zm0 0" fill="#4c241d" data-original="#4C241D" class="" style="fill:#070C4A" data-old_color="#4c241d"/><path d="m204.921875 193.378906c-16.9375 0-30.71875-13.78125-30.71875-30.71875 0-3.773437 3.054687-6.828125 6.828125-6.828125s6.824219 3.054688 6.824219 6.828125c0 9.414063 7.652343 17.066406 17.066406 17.066406 5.039063 0 9.792969-2.207031 13.042969-6.0625 2.433594-2.878906 6.730468-3.257812 9.617187-.816406 2.886719 2.433594 3.246094 6.738282.820313 9.617188-5.851563 6.933594-14.40625 10.914062-23.480469 10.914062zm0 0" fill="#4c241d" data-original="#4C241D" class="" style="fill:#070C4A" data-old_color="#4c241d"/><path d="m180.367188 293.574219c.195312 6.101562-3.589844 11.558593-9.25 13.488281-5.574219 1.902344-8.214844 8.414062-5.585938 13.792969l8.671875 17.738281 13.65625 69.824219h116.050781l-4.945312-35.414063c-1.171875-8.390625-.769532-16.929687 1.023437-25.207031 4.527344-20.859375 5.683594-40.996094 5.628907-56.535156-.046876-12.195313-1.902344-24.273438-5.417969-35.871094zm0 0" fill="#b5a19c" data-original="#B5A19C" class="" style="fill:#0083C9" data-old_color="#b5a19c"/><g fill="#4c241d"><path d="m303.910156 415.246094h-116.054687c-3.265625 0-6.074219-2.3125-6.699219-5.511719l-13.480469-68.945313-8.28125-16.929687c-2.125-4.359375-2.277343-9.417969-.417969-13.898437 1.832032-4.414063 5.453126-7.828126 9.933594-9.359376 2.824219-.960937 4.730469-3.761718 4.632813-6.800781-.101563-3.054687 1.839843-5.804687 4.746093-6.734375l119.832032-38.179687c1.753906-.542969 3.628906-.378907 5.253906.46875 1.613281.84375 2.828125 2.3125 3.355469 4.058593 3.738281 12.351563 5.664062 25.078126 5.710937 37.828126.074219 20.484374-1.871094 40.003906-5.777344 58.003906-1.667968 7.667968-1.988281 15.339844-.941406 22.8125l4.945313 35.414062c.273437 1.960938-.3125 3.941406-1.605469 5.429688-1.300781 1.488281-3.179688 2.34375-5.152344 2.34375zm-110.433594-13.652344h102.585938l-3.859375-27.640625c-1.269531-9.078125-.894531-18.367187 1.113281-27.605469 3.699219-17.035156 5.539063-35.5625 5.472656-55.054687-.035156-9.140625-1.148437-18.265625-3.308593-27.234375l-108.8125 34.667968c-1.5625 6.824219-6.496094 12.457032-13.355469 14.792969-1.046875.359375-1.53125 1.207031-1.734375 1.671875-.203125.507813-.476563 1.527344.082031 2.671875l8.671875 17.726563c.261719.53125.457031 1.105468.566407 1.6875zm0 0" data-original="#4C241D" class="" style="fill:#070C4A" data-old_color="#4C241D"/><path d="m293.863281 409.851562c-1.964843 0-3.914062-.839843-5.257812-2.464843-28.082031-33.855469-35.539063-91.269531-35.839844-93.691407-.46875-3.742187 2.179687-7.148437 5.917969-7.621093 3.863281-.449219 7.160156 2.1875 7.628906 5.917969.074219.5625 7.292969 55.921874 32.800781 86.675781 2.40625 2.90625 2.003907 7.207031-.894531 9.613281-1.277344 1.058594-2.820312 1.570312-4.355469 1.570312zm0 0" data-original="#4C241D" class="" style="fill:#070C4A" data-old_color="#4C241D"/><path d="m213.238281 410.617188c-.132812 0-.273437-.003907-.40625-.011719-3.765625-.21875-6.640625-3.453125-6.414062-7.214844 1.480469-25.144531 5.253906-49.605469 5.414062-50.632813.585938-3.726562 4.066407-6.246093 7.792969-5.699218 3.726562.578125 6.28125 4.066406 5.699219 7.792968-.039063.246094-3.832031 24.863282-5.28125 49.339844-.210938 3.628906-3.21875 6.425782-6.804688 6.425782zm0 0" data-original="#4C241D" class="" style="fill:#070C4A" data-old_color="#4C241D"/><path d="m177.617188 340.152344c-3.773438 0-6.828126-3.054688-6.828126-6.828125 0-3.746094 3.019532-6.792969 6.761719-6.824219.378907-.015625 12.453125-.535156 30.410157-12.507812 3.140624-2.085938 7.375-1.246094 9.46875 1.894531 2.09375 3.136719 1.246093 7.371093-1.894532 9.464843-21.578125 14.386719-36.3125 14.800782-37.917968 14.800782zm0 0" data-original="#4C241D" class="" style="fill:#070C4A" data-old_color="#4C241D"/><path d="m256.984375 179.058594c-4.535156 0-9.328125-1.050782-14.15625-3.464844-3.371094-1.6875-4.738281-5.789062-3.050781-9.160156 1.679687-3.375 5.792968-4.726563 9.160156-3.050782 8.878906 4.4375 16.757812.953126 20.316406-4.179687 2.140625-3.101563 6.386719-3.882813 9.5-1.730469 3.101563 2.148438 3.875 6.402344 1.726563 9.5-4.816407 6.96875-13.511719 12.085938-23.496094 12.085938zm0 0" data-original="#4C241D" class="" style="fill:#070C4A" data-old_color="#4C241D"/><path d="m273.195312 299.191406c-2.613281 0-5.097656-1.5-6.230468-4.03125-1.546875-3.441406-.007813-7.480468 3.433594-9.019531l30.644531-13.734375c3.441406-1.546875 7.480469-.007812 9.019531 3.433594 1.546875 3.441406.007812 7.480468-3.433594 9.019531l-30.644531 13.734375c-.90625.40625-1.855469.597656-2.789063.597656zm0 0" data-original="#4C241D" class="" style="fill:#070C4A" data-old_color="#4C241D"/></g></g> </svg>
