<?xml version="1.0"?>
<svg xmlns="http://www.w3.org/2000/svg" height="512px" viewBox="0 0 60 54" width="512px" class=""><g><g id="Page-1" fill="none" fill-rule="evenodd"><g id="002---Colosseum" fill-rule="nonzero" transform="translate(0 -1)"><g id="Icons" transform="translate(1 7)"><path id="Shape" d="m25 10.98c.0048527.533917-.2082166 1.0467276-.59 1.42-.3741785.3731317-.8815746.5818478-1.41.58h-21c-1.1045695 0-2-.8954305-2-2-.00282307-.5305905.2101411-1.0395388.59-1.41.12057714-.12581701.25866432-.23359237.41-.32.30383964-.17625351.64874021-.26937666 1-.27h21c1.1032019.0032948 1.9967052.89679813 2 2z" fill="#e8edfc" data-original="#E8EDFC" class=""/><path id="Shape" d="m23 8.98h-3c1.1032019.0032948 1.9967052.89679813 2 2 .0048527.533917-.2082166 1.0467276-.59 1.42-.3741785.3731317-.8815746.5818478-1.41.5800122l3-.0000122c.5284254.0018478 1.0358215-.2068683 1.41-.58.3817834-.3732724.5948527-.886083.59-1.42-.0032948-1.10320187-.8967981-1.9967052-2-2z" fill="#cad9fc" data-original="#CAD9FC" class=""/><path id="Shape" d="m34 33.98h-32c-.35125979.0006233-.69616036.0937465-1 .27v-9.54c.30383964.1762535.64874021.2693767 1 .27h27l3.9 7.02z" fill="#e8edfc" data-original="#E8EDFC" class=""/><path id="Shape" d="m32.9 32-3.9-7.02h-3l3.9 7.02 1.1 1.98h3z" fill="#cad9fc" data-original="#CAD9FC" class=""/><path id="Shape" d="m18 8.98h-16c-.35125979.00062334-.69616036.09374649-1.00001848.27l.00001848-5.65c-.00242715-.39675743.2343782-.7559122.6-.91 1.23-.52 4.56-1.56 11.76-1.69.3873217-.01038033.7457817.20391645.92.55z" fill="#e8edfc" data-original="#E8EDFC" class=""/><path id="Shape" d="m14.28 1.55c-.1742183-.34608355-.5326783-.56038033-.92-.55-.923.017-1.779.049-2.579.092.215382.08905223.3924404.25123773.5.458l3.719 7.43h3z" fill="#cad9fc" data-original="#CAD9FC" class=""/><path id="Shape" d="m41 40.98v5.02c0 .5522847-.4477153 1-1 1h-38c-.55228475 0-1-.4477153-1-1v-8.29c.30383964.1762535.64874021.2693767 1 .27h36c1.6568542 0 3 1.3431458 3 3z" fill="#e8edfc" data-original="#E8EDFC" class=""/><path id="Shape" d="m38 37.98h-3c1.6568542 0 3 1.3431458 3 3v5.02c0 .5522847-.4477153 1-1 1h3c.5522847 0 1-.4477153 1-1v-5.02c0-1.6568542-1.3431458-3-3-3z" fill="#cad9fc" data-original="#CAD9FC" class=""/><path id="Shape" d="m27 20.98h-25c-.35125979.0006233-.69616036.0937465-1 .27v-8.54c.30383964.1762535.64874021.2693767 1 .27h21z" fill="#e8edfc" data-original="#E8EDFC" class=""/><path id="Shape" d="m23 12.98h-3l4 8h3z" fill="#cad9fc" data-original="#CAD9FC" class=""/><path id="Shape" d="m31 22.98c.0048527.533917-.2082166 1.0467276-.59 1.42-.3741785.3731317-.8815746.5818478-1.41.58h-27c-1.1045695 0-2-.8954305-2-2-.00282307-.5305905.2101411-1.0395388.59-1.41.12057714-.125817.25866432-.2335924.41-.32.30383964-.1762535.64874021-.2693767 1-.27h27c.1073874-.0004056.2145593.0096418.32.03h.02c.9573731.1680501 1.6567178.9979952 1.66 1.97z" fill="#e8edfc" data-original="#E8EDFC" class=""/><path id="Shape" d="m29.34 21.01h-.02c-.1054407-.0203582-.2126126-.0304056-.32-.03l-3-.0000118c.1073874-.0003938.2145593.0096536.32.0300118h.02c.9573731.1680501 1.6567178.9979952 1.66 1.97.0048527.533917-.2082166 1.0467276-.59 1.42-.3741785.3731317-.8815746.5818478-1.41.5800122l3-.0000122c.5284254.0018478 1.0358215-.2068683 1.41-.58.3817834-.3732724.5948527-.886083.59-1.42-.0032822-.9720048-.7026269-1.8019499-1.66-1.97z" fill="#cad9fc" data-original="#CAD9FC" class=""/><path id="Shape" d="m37 35.98v.02c-.0109681 1.0967511-.9031941 1.9800548-2 1.98h-33c-1.1045695 0-2-.8954305-2-2-.00282307-.5305905.2101411-1.0395388.59-1.41.12057714-.125817.25866432-.2335924.41-.32.30383964-.1762535.64874021-.2693767 1-.27h33c1.1032019.0032948 1.9967052.8967981 2 2z" fill="#e8edfc" data-original="#E8EDFC" class=""/><path id="Shape" d="m35 33.98h-3c1.1032019.0032948 1.9967052.8967981 2 2v.02c-.0109681 1.0967511-.9031941 1.9800548-2 1.98h3c1.0968059.0000548 1.9890319-.8832489 2-1.98v-.02c-.0032948-1.1032019-.8967981-1.9967052-2-2z" fill="#cad9fc" data-original="#CAD9FC" class=""/><path id="Shape" d="m57 35.73v10.27c0 .5522847-.4477153 1-1 1h-16c.5522847 0 1-.4477153 1-1v-5.02c0-1.6568542-1.3431458-3-3-3h-3c1.0968059.0000548 1.9890319-.8832489 2-1.98h19c.3512598-.0006233.6961604-.0937465 1-.27z" fill="#a4c2f7" data-original="#A4C2F7" class=""/><path id="Shape" d="m57 23.98v8.3c-.301533-.1828473-.6473597-.2796788-1-.28h-23.1l-3.9-7.02c.5284254.0018478 1.0358215-.2068683 1.41-.58.3817834-.3732724.5948527-.886083.59-1.42-.0032822-.9720048-.7026269-1.8019499-1.66-1.97 25.89.33 27.66 2.97 27.66 2.97z" fill="#a4c2f7" data-original="#A4C2F7" class=""/><path id="Shape" d="m47 13.43c.0010531.4583571-.0837417.9128577-.25 1.34-.4967386 1.3295081-1.7607948 2.2159375-3.18 2.23h-11.14c-1.8221003-.0749692-3.2968315-1.5072761-3.4249398-3.3264127-.1281082-1.8191366 1.1313301-3.4439907 2.9249398-3.7735873-.01-.11-.02-.22-.02-.33-.0357176-1.93184498 1.4982717-3.52844616 3.43-3.57 1.013855.00232989 1.9726519.46152378 2.61 1.25l.11-.08c.6578816-.46613275 1.4437233-.71760209 2.25-.72 1.9909876.03178404 3.6625435 1.50818368 3.94 3.48 1.6259284.3744064 2.7709068 1.8316516 2.75 3.5z" fill="#e8edfc" data-original="#E8EDFC" class=""/><path id="Shape" d="m44.25 9.93c-.2774565-1.97181632-1.9490124-3.44821596-3.94-3.48-.5139063.00445497-1.0217813.1111971-1.494.314 1.3017872.5665566 2.221086 1.76232482 2.434 3.166 1.6259284.3744064 2.7709068 1.8316516 2.75 3.5.0010531.4583571-.0837417.9128577-.25 1.34-.4967386 1.3295081-1.7607948 2.2159375-3.18 2.23h3c1.4192052-.0140625 2.6832614-.9004919 3.18-2.23.1662583-.4271423.2510531-.8816429.25-1.34.0209068-1.6683484-1.1240716-3.1255936-2.75-3.5z" fill="#cad9fc" data-original="#CAD9FC" class=""/><path id="Shape" d="m52 8c.0053405 3.1921438-2.1570116 5.9805484-5.25 6.77.1662583-.4271423.2510531-.8816429.25-1.34.0209068-1.6683484-1.1240716-3.1255936-2.75-3.5-.2774565-1.97181632-1.9490124-3.44821596-3.94-3.48-.8062767.00239791-1.5921184.25386725-2.25.72.4333834-3.68046606 3.6623606-6.38398894 7.3617032-6.16372679 3.6993427.22026215 6.5847035 3.28783816 6.5782968 6.99372679z" fill="#e8edfc" data-original="#E8EDFC" class=""/><path id="Shape" d="m45 1c-.5028448.00155288-1.0040629.05720653-1.495.166 2.4942382.54210163 4.4933668 2.4029646 5.2125382 4.85202374.7191715 2.44905914.043581 5.09535916-1.7615382 6.89997626.0268175.1694039.0415214.3405045.044.512.0010531.4583571-.0837417.9128577-.25 1.34 3.3981736-.8931543 5.6077177-4.1670248 5.1647461-7.65257848-.4429716-3.48555367-3.401188-6.10266449-6.9147461-6.11742152z" fill="#cad9fc" data-original="#CAD9FC" class=""/><path id="Shape" d="m58 33.98v.02c.0028231.5305905-.2101411 1.0395388-.59 1.41-.1205771.125817-.2586643.2335924-.41.32-.3038396.1762535-.6487402.2693767-1 .27h-19v-.02c-.0032948-1.1032019-.8967981-1.9967052-2-2h-1l-1.1-1.98h23.1c.3526403.0003212.698467.0971527 1 .28.6106008.3498596.9908773.9963298 1 1.7z" fill="#e8edfc" data-original="#E8EDFC" class=""/><path id="Shape" d="m57 32.28c-.301533-.1828473-.6473597-.2796788-1-.28h-3c.3526403.0003212.698467.0971527 1 .28.6106008.3498596.9908773.9963298 1 1.7v.02c.0028231.5305905-.2101411 1.0395388-.59 1.41-.1205771.125817-.2586643.2335924-.41.32-.3038396.1762535-.6487402.2693767-1 .27h3c.3512598-.0006233.6961604-.0937465 1-.27.1513357-.0864076.2894229-.194183.41-.32.3798589-.3704612.5928231-.8794095.59-1.41v-.02c-.0091227-.7036702-.3893992-1.3501404-1-1.7z" fill="#cad9fc" data-original="#CAD9FC" class=""/></g><g id="Icons_copy_2" fill="#fff" transform="translate(1 8)"><path id="Shape" d="m1 36.71v8.29c0 .5522847.44771525 1 1 1h3c-.55228475 0-1-.4477153-1-1v-8.29c-.61680434-.3577978-.99645628-1.0169314-.99645628-1.73s.37965194-1.3722022.99645628-1.73v-9.54c-.61680434-.3577978-.99645628-1.0169314-.99645628-1.73s.37965194-1.3722022.99645628-1.73v-8.54c-.61680434-.3577978-.99645628-1.0169314-.99645628-1.73 0-.71306861.37965194-1.37220224.99645628-1.73v-5.65c-.00242715-.39675743.2343782-.7559122.6-.91 2.367-1 6.083-1.424 9.189-1.595-.1341884-.06308016-.2807254-.09553006-.429-.095-3.325.06-8.686.391-11.76 1.69-.3656218.1540878-.60242715.51324257-.6.91v5.65c-.61680434.35779776-.99645628 1.01693139-.99645628 1.73 0 .7130686.37965194 1.3722022.99645628 1.73v8.54c-.61680434.3577978-.99645628 1.0169314-.99645628 1.73s.37965194 1.3722022.99645628 1.73v9.54c-.61680434.3577978-.99645628 1.0169314-.99645628 1.73s.37965194 1.3722022.99645628 1.73z" data-original="#FFF" class=""/></g><g id="Icons_copy"><path id="Shape" d="m10.348 7.187.155 1.994c-2.56046667.12396116-5.09115362.6042498-7.519 1.427l-.775-1.843c1.31606062-.50651204 2.68248745-.87091488 4.076-1.087 1.355-.233 2.709-.386 4.063-.491z" fill="#fff" data-original="#FFF" class=""/><g fill="#428dff"><path id="Shape" d="m6.626 9.648c.53449171-.09861422.89537138-.60216723.817-1.14-.05248224-.35978917-.29611611-.66274101-.63627042-.79118429-.34015432-.12844328-.72322165-.06213568-1.00041268.17316788-.27719102.23530357-.40482117.60251989-.3333169.95901641.108848.53179798.61684589.88382773 1.153.799z" data-original="#428DFF" class="active-path" data-old_color="#428DFF" style="fill:#0083C9"/><path id="Shape" d="m33.428 25h11.144c1.6345457-.0171787 3.1248448-.9390846 3.87-2.394 3.599277-1.1525055 5.8996872-4.6681358 5.514603-8.42776s-3.3504362-6.73590214-7.1086188-7.13481066c-3.7581825-.39890851-7.2822493 1.88855661-8.4479842 5.48357066-.6314084-.3443106-1.3388171-.5254595-2.058-.527-2.3139624.0348823-4.2221867 1.823166-4.407 4.13-1.773694.6886886-2.9403342 2.3983035-2.935 4.301-.0356387 2.483146 1.9449567 4.5268091 4.428 4.569zm12.572-16c2.7177611-.0073289 5.0992746 1.817456 5.7992358 4.4435431.6999612 2.6260872-.4573752 5.3941224-2.8182358 6.7404569-.0815762-1.7965308-1.2092134-3.3781975-2.881-4.041-.5831469-2.1688832-2.5431322-3.6811291-4.789-3.695-.2506046.0021421-.5006741.0235384-.748.064.9645945-2.1374872 3.0919427-3.51163597 5.437-3.512zm-12.92 8.888c.5217559-.0797412.8917-.5512558.845-1.077-.007-.081-.01-.161-.01-.242-.038659-1.3793963 1.0476348-2.5292474 2.427-2.569.713789.0033563 1.3879806.3285114 1.835.885.3418788.4191181.955041.4904469 1.384.161.5013816-.3893214 1.118213-.6004445 1.753-.6 1.4956114.0427778 2.7425556 1.1575087 2.952 2.639.0640686.4101471.3748717.7380624.781.824 1.1628562.2771341 1.9756958 1.3267917 1.953 2.522.0386538 1.3797757-1.04824 2.5297882-2.428 2.569h-11.144c-1.37976-.0392118-2.4666538-1.1892243-2.428-2.569-.0223952-1.2424563.8577793-2.3185543 2.08-2.543z" data-original="#428DFF" class="active-path" data-old_color="#428DFF" style="fill:#0083C9"/><path id="Shape" d="m46 4.99c.5522847 0 1-.44771525 1-1v-2c0-.55228475-.4477153-1-1-1s-1 .44771525-1 1v2c0 .55228475.4477153 1 1 1z" data-original="#428DFF" class="active-path" data-old_color="#428DFF" style="fill:#0083C9"/><path id="Shape" d="m37.515 7.918c.3915699.39046529 1.0255347.38956984 1.416-.00200003.3904653-.39156988.3895699-1.02553465-.002-1.41599997l-1.414-1.41c-.3944571-.35870714-1.0009669-.34485787-1.3786397.03148038-.3776728.37633824-.3936689.98279525-.0363603 1.37851962z" data-original="#428DFF" class="active-path" data-old_color="#428DFF" style="fill:#0083C9"/><path id="Shape" d="m53.071 22.061c-.3903819.3904999-.3903819 1.0235001 0 1.414l1.414 1.414c.2525868.2527654.6208353.3515768.96603.259213.3451946-.0923639.6148921-.3618707.7075-.707s-.0059432-.7134476-.25853-.966213l-1.414-1.414c-.1875683-.187777-.4420908-.2932867-.7075-.2932867s-.5199317.1055097-.7075.2932867z" data-original="#428DFF" class="active-path" data-old_color="#428DFF" style="fill:#0083C9"/><path id="Shape" d="m53.778 8.211c.2653486.00071853.5199469-.10479393.707-.293l1.415-1.418c.2730075-.24826467.3871054-.62670212.2968234-.98449763-.0902821-.3577955-.3702698-.63679388-.7283826-.72580883-.3581129-.08901494-.7361441.02642181-.9834408.30030646l-1.414 1.41c-.2859079.28599425-.3714219.71603662-.216678 1.08965456s.5192821.61725909.923678.61734544z" data-original="#428DFF" class="active-path" data-old_color="#428DFF" style="fill:#0083C9"/><path id="Shape" d="m59 13.99h-2c-.5522847 0-1 .4477153-1 1s.4477153 1 1 1h2c.5522847 0 1-.4477153 1-1s-.4477153-1-1-1z" data-original="#428DFF" class="active-path" data-old_color="#428DFF" style="fill:#0083C9"/><path id="Shape" d="m59 38.782v-7.8c.0001432-.1970887-.0579561-.3898252-.167-.554-.541-.812-3.873-2.76-23.1-3.3-.2664932-.0127934-.5267018.0835078-.7206585.2667101s-.3049287.4375007-.3073415.7042899c-.0156878.5519886.4190143 1.0122087.971 1.028 15.953.452 20.3 1.9 21.328 2.391v6.482h-2.004v-2c0-.5522847-.4477153-1-1-1s-1 .4477153-1 1v2h-3v-2c0-.5522847-.4477153-1-1-1s-1 .4477153-1 1v2h-4v-2c0-.5522847-.4477153-1-1-1s-1 .4477153-1 1v2h-2.1c-.5522847 0-1 .4477153-1 1s.4477153 1 1 1h17.1c.5484737.0090941.9909059.4515263 1 1 .0008733.2694422-.1099083.5272084-.306.712-.1823963.1865985-.4330776.2906276-.694.288h-14c-.5522847 0-1 .4477153-1 1s.4477153 1 1 1h14v9h-2v-3c0-.5522847-.4477153-1-1-1s-1 .4477153-1 1v3h-3v-3c0-.5522847-.4477153-1-1-1s-1 .4477153-1 1v3h-5v-5.019c0-2.209139-1.790861-4-4-4h-.181c.3350248-.9168573.1994424-1.9396941-.3628838-2.7376028-.5623261-.7979087-1.4799925-1.2695718-2.4561162-1.2623972h-.412l-4.111-7.4c.2303217-.1258648.4425761-.2822804.631-.465.5754341-.5610719.8975111-1.3323236.892-2.136 0-1.6568542-1.3431458-3-3-3h-1.382l-3.188-6.375c.2484302-.1294006.4768023-.2941114.678-.489.5754341-.5610719.8975111-1.3323236.892-2.136 0-1.6568542-1.3431458-3-3-3h-4.383l-3.44-6.873c-.3587006-.68059345-1.0646668-1.10671374-1.834-1.107-1.33.029-2.661.085-3.993.187-.2670614.01820761-.51539876.14367753-.68849957.34785738-.17310081.20417984-.25624083.46970176-.23050043.73614262.05233895.54420859.52858388.94773084 1.074.91 1.28-.1 2.568-.152 3.858-.18h.027l2.993 5.978h-6.383v-2c0-.5522847-.4477153-1-1-1-.55228475 0-1 .4477153-1 1v2h-2v-2c0-.5522847-.44771525-1-1-1s-1 .4477153-1 1v2h-2l-.012-4.372c.5089304-.2145626.74756263-.8010696.533-1.31s-.8010696-.74756263-1.31-.533c-.73681415.31198953-1.2142699 1.03586135-1.211 1.836v5.161c-.035.033-.075.057-.108.091-.57450045.5584111-.8966063 1.326843-.892 2.128.0026614.8484938.36629485 1.6557601 1 2.22v7.563c-.035.033-.075.057-.108.091-.57399851.5579289-.89606134 1.3255361-.892 2.126.0026614.8484938.36629485 1.6557601 1 2.22v8.563c-.035.033-.075.057-.108.091-.57399851.5579289-.89606134 1.3255361-.892 2.126.0026614.8484938.36629485 1.6557601 1 2.22v7.8c0 1.1045695.8954305 2 2 2h54c1.1045695 0 2-.8954305 2-2v-9.783c.035-.033.075-.057.108-.091.5888886-.5764387.9117118-1.371697.8912305-2.1955002s-.3824245-1.602037-.9992305-2.1484998zm-56-17.802h2c.55228475 0 1-.4477153 1-1s-.44771525-1-1-1h-2c-.55228475 0-1-.4477153-1-1-.00087326-.2694422.10990828-.5272084.306-.712.18239634-.1865985.43307757-.2906276.694-.288h21c.5522847 0 1 .4477153 1 1 .0033123.2690071-.1053592.5272832-.3.713-.1858886.1849395-.4377869.2882178-.7.287h-14c-.55228475 0-1 .4477153-1 1s.44771525 1 1 1h13.381l3 6h-4.381v-1.98c0-.5522847-.4477153-1-1-1s-1 .4477153-1 1v1.98h-4v-1.98c0-.5522847-.4477153-1-1-1s-1 .4477153-1 1v1.98h-3v-1.98c0-.5522847-.4477153-1-1-1-.55228475 0-1 .4477153-1 1v1.98h-2v-1.98c0-.5522847-.44771525-1-1-1s-1 .4477153-1 1v1.98h-2zm0 12h15c.5522847 0 1-.4477153 1-1s-.4477153-1-1-1h-15c-.55228475 0-1-.4477153-1-1-.00087326-.2694422.10990828-.5272084.306-.712.18239634-.1865985.43307757-.2906276.694-.288h27c.5522847 0 1 .4477153 1 1 .0033123.2690071-.1053592.5272832-.3.713-.1858886.1849395-.4377869.2882178-.7.287h-7c-.5522847 0-1 .4477153-1 1s.4477153 1 1 1h6.411l3.889 7h-4.3v-2.98c0-.5522847-.4477153-1-1-1s-1 .4477153-1 1v2.98h-5v-2.98c0-.5522847-.4477153-1-1-1s-1 .4477153-1 1v2.98h-4v-2.98c0-.5522847-.4477153-1-1-1s-1 .4477153-1 1v2.98h-3v-2.98c0-.5522847-.4477153-1-1-1-.55228475 0-1 .4477153-1 1v2.98h-2v-2.98c0-.5522847-.44771525-1-1-1s-1 .4477153-1 1v2.98h-2zm0 13h4c.55228475 0 1-.4477153 1-1s-.44771525-1-1-1h-4c-.55228475 0-1-.4477153-1-1-.00087326-.2694422.10990828-.5272084.306-.712.18239634-.1865985.43307757-.2906276.694-.288h33c.5522847 0 1 .4477153 1 1 .0033123.2690071-.1053592.5272832-.3.713-.1858886.1849395-.4377869.2882178-.7.287h-24c-.5522847 0-1 .4477153-1 1s.4477153 1 1 1h27c1.1045695 0 2 .8954305 2 2v5.02h-4v-3c0-.5522847-.4477153-1-1-1s-1 .4477153-1 1v3h-6v-3c0-.5522847-.4477153-1-1-1s-1 .4477153-1 1v3h-5v-3c0-.5522847-.4477153-1-1-1s-1 .4477153-1 1v3h-4v-3c0-.5522847-.4477153-1-1-1s-1 .4477153-1 1v3h-3v-3c0-.5522847-.4477153-1-1-1-.55228475 0-1 .4477153-1 1v3h-2v-3c0-.5522847-.44771525-1-1-1s-1 .4477153-1 1v3h-2z" data-original="#428DFF" class="active-path" data-old_color="#428DFF" style="fill:#0083C9"/></g></g></g></g></g> </svg>
