<?xml version="1.0"?>
<svg xmlns="http://www.w3.org/2000/svg" id="_x33_0" enable-background="new 0 0 64 64" height="512px" viewBox="0 0 64 64" width="512px" class=""><g><g><circle cx="32" cy="35" r="1" data-original="#000000" class="active-path" data-old_color="#000000" fill="#0083C9"/><path d="m34 43h2v12h-2z" data-original="#000000" class="active-path" data-old_color="#000000" fill="#0083C9"/><path d="m37.5 46.959h2v6.083h-2z" transform="matrix(.986 -.164 .164 .986 -7.696 7.01)" data-original="#000000" class="active-path" data-old_color="#000000" fill="#0083C9"/><path d="m29.639 48h4.055v2h-4.055z" transform="matrix(.164 -.986 .986 .164 -21.865 72.198)" data-original="#000000" class="active-path" data-old_color="#000000" fill="#0083C9"/><path d="m61 35h-.111c1.301-1.272 2.111-3.042 2.111-5 0-3.859-3.14-7-7-7s-7 3.141-7 7c0 1.958.81 3.728 2.111 5h-.111c-1.103 0-2 .897-2 2v24h-6v-18.189c0-3.354-1.478-6.51-4.055-8.657-1.017-.848-1.685-2.045-1.883-3.343 1.157-.9 1.89-2.277 1.927-3.811h.011c1.103 0 2-.897 2-2v-4c0-1.103-.897-2-2-2h-4.658c-.73 0-1.378-.396-1.728-1.004 1.856-.023 3.364-1.526 3.385-3.382 1.238-.691 2-1.982 2-3.41 0-1.044-.406-2.025-1.144-2.763l-.872-.872c-.104-1.382-.708-2.707-1.691-3.69l-.592-.593c-1.474-1.474-3.434-2.286-5.519-2.286-1.636 0-3.205.503-4.537 1.454l-3.176 2.269c-1.546 1.103-2.468 2.896-2.468 4.796 0 1.167.342 2.297.99 3.269l1.01 1.515v.627c0 2.244 1.826 4.07 4.07 4.07.295 0 .583-.042.867-.104-.102.282-.324.512-.621.611l-1.776.593c-2.114.705-3.655 2.508-4.021 4.706l-.48 2.88c-.026.153-.039.309-.039.467 0 1.57 1.277 2.847 2.847 2.847h2.178c.716.946 1.747 1.641 2.949 1.892-.058.574-.27 1.127-.632 1.578-2.155 2.695-3.342 6.08-3.342 9.53v.945c0 .739.046 1.487.139 2.226l1.728 13.829h-8.867v-24c0-1.103-.897-2-2-2h-.111c1.301-1.272 2.111-3.042 2.111-5 0-3.859-3.14-7-7-7s-7 3.141-7 7c0 1.958.81 3.728 2.111 5h-.111c-1.103 0-2 .897-2 2v26h62v-26c0-1.103-.897-2-2-2zm-58-5c0-2.757 2.243-5 5-5s5 2.243 5 5-2.243 5-5 5-5-2.243-5-5zm10 7v2h-10v-2zm-4 4v20h-2v-20zm-6 0h2v20h-2zm8 20v-20h2v20zm30-18.189v18.189h-8.299l-3.014-8.287c-.456-1.254-.687-2.566-.687-3.9 0-3.923 1.976-7.522 5.285-9.628l4.225-2.688c1.591 1.706 2.49 3.948 2.49 6.314zm-15.865-28.979-.984-3.445 3-2.25 3.849 1.54v3.333c0 1.648-1.341 2.99-2.99 2.99-1.328 0-2.51-.892-2.875-2.168zm-3.135 1.098v-1.232l-1.346-2.02c-.428-.642-.654-1.389-.654-2.159 0-1.255.609-2.439 1.63-3.169l3.176-2.269c.991-.707 2.158-1.081 3.375-1.081 1.551 0 3.008.604 4.105 1.7l.593.593c.712.713 1.121 1.699 1.121 2.707v.414l1.442 1.441c.36.36.558.839.558 1.349 0 .727-.404 1.38-1.053 1.705l-.947.472v1.192c0 .787-.64 1.427-1.427 1.427-.174 0-.345-.041-.508-.103.583-.817.935-1.809.935-2.887v-4.687l-6.15-2.46-5 3.75 1.362 4.768c.282.987.865 1.827 1.621 2.454-.243.097-.497.165-.763.165-1.141 0-2.07-.929-2.07-2.07zm2 13.07c0-.556.089-1.104.265-1.632l.684-2.052-1.897-.633-.684 2.052c-.244.732-.368 1.494-.368 2.265 0 .342.035.677.101 1h-1.254c-.467 0-.847-.38-.847-.847 0-.047.004-.094.011-.14l.48-2.88c.245-1.465 1.272-2.667 2.681-3.137l1.777-.593c1.227-.408 2.051-1.551 2.051-2.844v-.675c.329.068.665.116 1.01.116.838 0 1.617-.227 2.311-.594l.141.564c.445 1.784 2.041 3.03 3.88 3.03h4.658v4h-.382c-.539-1.323-1.619-2.388-3.035-2.86l-.268-.089-.631 1.898.267.088c1.226.409 2.049 1.551 2.049 2.843 0 1.377-.933 2.572-2.269 2.907l-.973.243.484 1.939.97-.242c.302 1.25.924 2.407 1.808 3.347l-3.809 2.423c-.55.35-1.06.743-1.545 1.16l-4.874-2.785c.039-.05.072-.103.112-.153.643-.803 1.006-1.795 1.07-2.819 2.292-.453 4.026-2.477 4.026-4.9 0-.771-.124-1.533-.368-2.265l-.684-2.052-1.897.633.684 2.052c.176.528.265 1.076.265 1.632 0 1.654-1.346 3-3 3s-3-1.346-3-3zm.123 18.923c-.081-.655-.123-1.321-.123-1.978v-.945c0-2.263.589-4.493 1.683-6.457l4.53 2.588c-2.041 2.39-3.213 5.434-3.213 8.682 0 1.567.271 3.109.807 4.583l2.765 7.604h-4.689zm26.877-16.923c0-2.757 2.243-5 5-5s5 2.243 5 5-2.243 5-5 5-5-2.243-5-5zm10 7v2h-10v-2zm-4 4v20h-2v-20zm-6 0h2v20h-2zm8 20v-20h2v20z" data-original="#000000" class="active-path" data-old_color="#000000" fill="#0083C9"/></g></g> </svg>
